{
  "asset": {
    "generator": "glTF-Transform v4.4.0",
    "version": "2.0",
    "extras": {
      "author": "Sergey Egelsky (https://sketchfab.com/egelsky)",
      "license": "CC-BY-4.0 (http://creativecommons.org/licenses/by/4.0/)",
      "source": "https://sketchfab.com/3d-models/shield-9626b82200e44a5ea4a0ac5cd8020e3f",
      "title": "Shield"
    }
  },
  "accessors": [
    {
      "type": "SCALAR",
      "componentType": 5123,
      "count": 5112,
      "bufferView": 0,
      "byteOffset": 0
    },
    {
      "type": "VEC3",
      "componentType": 5126,
      "count": 1556,
      "bufferView": 1,
      "byteOffset": 0
    },
    {
      "type": "VEC3",
      "componentType": 5126,
      "count": 1556,
      "max": [
        32.5,
        32.5,
        11.859223365783691
      ],
      "min": [
        -32.5,
        -32.5,
        -3.014763355255127
      ],
      "bufferView": 1,
      "byteOffset": 12
    },
    {
      "type": "VEC4",
      "componentType": 5126,
      "count": 1556,
      "bufferView": 1,
      "byteOffset": 24
    },
    {
      "type": "VEC2",
      "componentType": 5126,
      "count": 1556,
      "bufferView": 1,
      "byteOffset": 40
    }
  ],
  "bufferViews": [
    {
      "buffer": 0,
      "byteOffset": 0,
      "byteLength": 10224,
      "target": 34963
    },
    {
      "buffer": 0,
      "byteOffset": 10224,
      "byteLength": 74688,
      "byteStride": 48,
      "target": 34962
    }
  ],
  "samplers": [
    {
      "magFilter": 9729,
      "minFilter": 9987,
      "wrapS": 10497,
      "wrapT": 10497
    }
  ],
  "textures": [
    {
      "sampler": 0,
      "extensions": {
        "EXT_texture_webp": {
          "source": 0
        }
      }
    },
    {
      "sampler": 0,
      "extensions": {
        "EXT_texture_webp": {
          "source": 2
        }
      }
    },
    {
      "sampler": 0,
      "extensions": {
        "EXT_texture_webp": {
          "source": 1
        }
      }
    }
  ],
  "images": [
    {
      "mimeType": "image/webp",
      "uri": "textures/shield_01_baseColor.webp"
    },
    {
      "mimeType": "image/webp",
      "uri": "textures/shield_01_metallicRoughness.webp"
    },
    {
      "mimeType": "image/webp",
      "uri": "textures/shield_01_normal.webp"
    }
  ],
  "buffers": [
    {
      "uri": "scene.bin",
      "byteLength": 84912
    }
  ],
  "materials": [
    {
      "name": "shield_01",
      "pbrMetallicRoughness": {
        "roughnessFactor": 0.8300000000000001,
        "baseColorTexture": {
          "index": 0
        },
        "metallicRoughnessTexture": {
          "index": 2
        }
      },
      "normalTexture": {
        "index": 1
      },
      "occlusionTexture": {
        "index": 2
      }
    }
  ],
  "meshes": [
    {
      "name": "shield_shield_01_0",
      "primitives": [
        {
          "attributes": {
            "NORMAL": 1,
            "POSITION": 2,
            "TANGENT": 3,
            "TEXCOORD_0": 4
          },
          "mode": 4,
          "material": 0,
          "indices": 0
        }
      ]
    }
  ],
  "nodes": [
    {
      "name": "Sketchfab_model",
      "rotation": [
        -0.7071067811865475,
        0,
        0,
        0.7071067811865476
      ],
      "scale": [
        21.4777774810791,
        21.4777774810791,
        21.4777774810791
      ],
      "children": [
        1
      ]
    },
    {
      "name": "90a4ea5d6e3a44789ef4df1bff1f35a7.fbx",
      "rotation": [
        0.7071067811865475,
        0,
        0,
        0.7071067811865476
      ],
      "children": [
        2
      ]
    },
    {
      "name": "RootNode",
      "children": [
        3
      ]
    },
    {
      "name": "shield",
      "children": [
        4
      ]
    },
    {
      "name": "shield_shield_01_0",
      "mesh": 0
    }
  ],
  "scenes": [
    {
      "name": "Sketchfab_Scene",
      "nodes": [
        0
      ]
    }
  ],
  "scene": 0,
  "extensionsUsed": [
    "EXT_texture_webp"
  ],
  "extensionsRequired": [
    "EXT_texture_webp"
  ]
}