{
  "asset": {
    "generator": "glTF-Transform v4.4.0",
    "version": "2.0",
    "extras": {
      "author": "artikora (https://sketchfab.com/artikora978)",
      "license": "CC-BY-4.0 (http://creativecommons.org/licenses/by/4.0/)",
      "source": "https://sketchfab.com/3d-models/projet-aaron-skulls-collection-8495ffcc05d04c3ca1505a654f97743b",
      "title": "Projet Aaron - Skulls collection"
    }
  },
  "accessors": [
    {
      "type": "SCALAR",
      "componentType": 5123,
      "count": 35721,
      "bufferView": 0,
      "byteOffset": 0
    },
    {
      "type": "SCALAR",
      "componentType": 5123,
      "count": 32100,
      "bufferView": 0,
      "byteOffset": 71444
    },
    {
      "type": "SCALAR",
      "componentType": 5123,
      "count": 33342,
      "bufferView": 0,
      "byteOffset": 135644
    },
    {
      "type": "SCALAR",
      "componentType": 5123,
      "count": 25710,
      "bufferView": 0,
      "byteOffset": 202328
    },
    {
      "type": "SCALAR",
      "componentType": 5123,
      "count": 27960,
      "bufferView": 0,
      "byteOffset": 253748
    },
    {
      "type": "SCALAR",
      "componentType": 5123,
      "count": 31176,
      "bufferView": 0,
      "byteOffset": 309668
    },
    {
      "type": "SCALAR",
      "componentType": 5123,
      "count": 33282,
      "bufferView": 0,
      "byteOffset": 372020
    },
    {
      "type": "SCALAR",
      "componentType": 5123,
      "count": 25710,
      "bufferView": 0,
      "byteOffset": 438584
    },
    {
      "type": "SCALAR",
      "componentType": 5123,
      "count": 28806,
      "bufferView": 0,
      "byteOffset": 490004
    },
    {
      "type": "SCALAR",
      "componentType": 5123,
      "count": 30390,
      "bufferView": 0,
      "byteOffset": 547616
    },
    {
      "type": "SCALAR",
      "componentType": 5123,
      "count": 32100,
      "bufferView": 0,
      "byteOffset": 608396
    },
    {
      "type": "VEC3",
      "componentType": 5126,
      "count": 6977,
      "bufferView": 1,
      "byteOffset": 0
    },
    {
      "type": "VEC3",
      "componentType": 5126,
      "count": 6977,
      "max": [
        -20.416141510009766,
        8.899740219116211,
        2.209813117980957
      ],
      "min": [
        -37.62433624267578,
        -6.42202615737915,
        -2.209813117980957
      ],
      "bufferView": 1,
      "byteOffset": 12
    },
    {
      "type": "VEC4",
      "componentType": 5126,
      "count": 6977,
      "bufferView": 1,
      "byteOffset": 24
    },
    {
      "type": "VEC2",
      "componentType": 5126,
      "count": 6977,
      "bufferView": 1,
      "byteOffset": 40
    },
    {
      "type": "VEC3",
      "componentType": 5126,
      "count": 6438,
      "bufferView": 2,
      "byteOffset": 0
    },
    {
      "type": "VEC3",
      "componentType": 5126,
      "count": 6438,
      "max": [
        22.599863052368164,
        -6.109275817871094,
        1.2735389471054077
      ],
      "min": [
        5.096707820892334,
        -15.130455017089844,
        -1.3779749870300293
      ],
      "bufferView": 2,
      "byteOffset": 12
    },
    {
      "type": "VEC4",
      "componentType": 5126,
      "count": 6438,
      "bufferView": 2,
      "byteOffset": 24
    },
    {
      "type": "VEC2",
      "componentType": 5126,
      "count": 6438,
      "bufferView": 2,
      "byteOffset": 40
    },
    {
      "type": "VEC3",
      "componentType": 5126,
      "count": 6456,
      "bufferView": 3,
      "byteOffset": 0
    },
    {
      "type": "VEC3",
      "componentType": 5126,
      "count": 6456,
      "max": [
        12.200632095336914,
        12.722780227661133,
        14.22356128692627
      ],
      "min": [
        4.283621788024902,
        -2.586725950241089,
        -0.9187620282173157
      ],
      "bufferView": 3,
      "byteOffset": 12
    },
    {
      "type": "VEC4",
      "componentType": 5126,
      "count": 6456,
      "bufferView": 3,
      "byteOffset": 24
    },
    {
      "type": "VEC2",
      "componentType": 5126,
      "count": 6456,
      "bufferView": 3,
      "byteOffset": 40
    },
    {
      "type": "VEC3",
      "componentType": 5126,
      "count": 5047,
      "bufferView": 4,
      "byteOffset": 0
    },
    {
      "type": "VEC3",
      "componentType": 5126,
      "count": 5047,
      "max": [
        -5.598297119140625,
        17.70040512084961,
        1.9973779916763306
      ],
      "min": [
        -19.093116760253906,
        -17.06389808654785,
        -2.479280948638916
      ],
      "bufferView": 4,
      "byteOffset": 12
    },
    {
      "type": "VEC4",
      "componentType": 5126,
      "count": 5047,
      "bufferView": 4,
      "byteOffset": 24
    },
    {
      "type": "VEC2",
      "componentType": 5126,
      "count": 5047,
      "bufferView": 4,
      "byteOffset": 40
    },
    {
      "type": "VEC3",
      "componentType": 5126,
      "count": 5477,
      "bufferView": 5,
      "byteOffset": 0
    },
    {
      "type": "VEC3",
      "componentType": 5126,
      "count": 5477,
      "max": [
        2.0743460655212402,
        13.550176620483398,
        10.954012870788574
      ],
      "min": [
        -6.311966896057129,
        -1.063060998916626,
        -1.6629270315170288
      ],
      "bufferView": 5,
      "byteOffset": 12
    },
    {
      "type": "VEC4",
      "componentType": 5126,
      "count": 5477,
      "bufferView": 5,
      "byteOffset": 24
    },
    {
      "type": "VEC2",
      "componentType": 5126,
      "count": 5477,
      "bufferView": 5,
      "byteOffset": 40
    },
    {
      "type": "VEC3",
      "componentType": 5126,
      "count": 6099,
      "bufferView": 6,
      "byteOffset": 0
    },
    {
      "type": "VEC3",
      "componentType": 5126,
      "count": 6099,
      "max": [
        32.61465835571289,
        10.594507217407227,
        6.789485931396484
      ],
      "min": [
        6.083003997802734,
        -4.764227867126465,
        -0.6223580241203308
      ],
      "bufferView": 6,
      "byteOffset": 12
    },
    {
      "type": "VEC4",
      "componentType": 5126,
      "count": 6099,
      "bufferView": 6,
      "byteOffset": 24
    },
    {
      "type": "VEC2",
      "componentType": 5126,
      "count": 6099,
      "bufferView": 6,
      "byteOffset": 40
    },
    {
      "type": "VEC3",
      "componentType": 5126,
      "count": 6447,
      "bufferView": 7,
      "byteOffset": 0
    },
    {
      "type": "VEC3",
      "componentType": 5126,
      "count": 6447,
      "max": [
        30.301959991455078,
        48.42073059082031,
        6.789485931396484
      ],
      "min": [
        1.9709219932556152,
        34.255531311035156,
        -0.9187620282173157
      ],
      "bufferView": 7,
      "byteOffset": 12
    },
    {
      "type": "VEC4",
      "componentType": 5126,
      "count": 6447,
      "bufferView": 7,
      "byteOffset": 24
    },
    {
      "type": "VEC2",
      "componentType": 5126,
      "count": 6447,
      "bufferView": 7,
      "byteOffset": 40
    },
    {
      "type": "VEC3",
      "componentType": 5126,
      "count": 5047,
      "max": [
        -7.910995960235596,
        55.52663040161133,
        1.9973779916763306
      ],
      "min": [
        -21.40581512451172,
        20.7623291015625,
        -2.479280948638916
      ],
      "bufferView": 8,
      "byteOffset": 0
    },
    {
      "type": "VEC4",
      "componentType": 5126,
      "count": 5047,
      "bufferView": 8,
      "byteOffset": 12
    },
    {
      "type": "VEC3",
      "componentType": 5126,
      "count": 5047,
      "bufferView": 8,
      "byteOffset": 28
    },
    {
      "type": "VEC2",
      "componentType": 5126,
      "count": 5047,
      "bufferView": 8,
      "byteOffset": 40
    },
    {
      "type": "VEC3",
      "componentType": 5126,
      "count": 5643,
      "bufferView": 9,
      "byteOffset": 0
    },
    {
      "type": "VEC3",
      "componentType": 5126,
      "count": 5643,
      "max": [
        9.887932777404785,
        50.549007415771484,
        14.22356128692627
      ],
      "min": [
        2.618817090988159,
        43.658042907714844,
        -0.8161630034446716
      ],
      "bufferView": 9,
      "byteOffset": 12
    },
    {
      "type": "VEC4",
      "componentType": 5126,
      "count": 5643,
      "bufferView": 9,
      "byteOffset": 24
    },
    {
      "type": "VEC2",
      "componentType": 5126,
      "count": 5643,
      "bufferView": 9,
      "byteOffset": 40
    },
    {
      "type": "VEC3",
      "componentType": 5126,
      "count": 5942,
      "bufferView": 10,
      "byteOffset": 0
    },
    {
      "type": "VEC3",
      "componentType": 5126,
      "count": 5942,
      "max": [
        10.448492050170898,
        51.376407623291016,
        10.954012870788574
      ],
      "min": [
        -8.624666213989258,
        33.0620002746582,
        -1.6629270315170288
      ],
      "bufferView": 10,
      "byteOffset": 12
    },
    {
      "type": "VEC4",
      "componentType": 5126,
      "count": 5942,
      "bufferView": 10,
      "byteOffset": 24
    },
    {
      "type": "VEC2",
      "componentType": 5126,
      "count": 5942,
      "bufferView": 10,
      "byteOffset": 40
    },
    {
      "type": "VEC3",
      "componentType": 5126,
      "count": 6438,
      "bufferView": 11,
      "byteOffset": 0
    },
    {
      "type": "VEC3",
      "componentType": 5126,
      "count": 6438,
      "max": [
        22.599863052368164,
        -18.121631622314453,
        1.2735389471054077
      ],
      "min": [
        5.096707820892334,
        -27.142810821533203,
        -1.3779749870300293
      ],
      "bufferView": 11,
      "byteOffset": 12
    },
    {
      "type": "VEC4",
      "componentType": 5126,
      "count": 6438,
      "bufferView": 11,
      "byteOffset": 24
    },
    {
      "type": "VEC2",
      "componentType": 5126,
      "count": 6438,
      "bufferView": 11,
      "byteOffset": 40
    }
  ],
  "bufferViews": [
    {
      "buffer": 0,
      "byteOffset": 0,
      "byteLength": 672596,
      "target": 34963
    },
    {
      "buffer": 0,
      "byteOffset": 672596,
      "byteLength": 334896,
      "byteStride": 48,
      "target": 34962
    },
    {
      "buffer": 0,
      "byteOffset": 1007492,
      "byteLength": 309024,
      "byteStride": 48,
      "target": 34962
    },
    {
      "buffer": 0,
      "byteOffset": 1316516,
      "byteLength": 309888,
      "byteStride": 48,
      "target": 34962
    },
    {
      "buffer": 0,
      "byteOffset": 1626404,
      "byteLength": 242256,
      "byteStride": 48,
      "target": 34962
    },
    {
      "buffer": 0,
      "byteOffset": 1868660,
      "byteLength": 262896,
      "byteStride": 48,
      "target": 34962
    },
    {
      "buffer": 0,
      "byteOffset": 2131556,
      "byteLength": 292752,
      "byteStride": 48,
      "target": 34962
    },
    {
      "buffer": 0,
      "byteOffset": 2424308,
      "byteLength": 309456,
      "byteStride": 48,
      "target": 34962
    },
    {
      "buffer": 0,
      "byteOffset": 2733764,
      "byteLength": 242256,
      "byteStride": 48,
      "target": 34962
    },
    {
      "buffer": 0,
      "byteOffset": 2976020,
      "byteLength": 270864,
      "byteStride": 48,
      "target": 34962
    },
    {
      "buffer": 0,
      "byteOffset": 3246884,
      "byteLength": 285216,
      "byteStride": 48,
      "target": 34962
    },
    {
      "buffer": 0,
      "byteOffset": 3532100,
      "byteLength": 309024,
      "byteStride": 48,
      "target": 34962
    }
  ],
  "samplers": [
    {
      "magFilter": 9729,
      "minFilter": 9987,
      "wrapS": 10497,
      "wrapT": 10497
    }
  ],
  "textures": [
    {
      "sampler": 0,
      "extensions": {
        "EXT_texture_webp": {
          "source": 0
        }
      }
    },
    {
      "sampler": 0,
      "extensions": {
        "EXT_texture_webp": {
          "source": 2
        }
      }
    },
    {
      "sampler": 0,
      "extensions": {
        "EXT_texture_webp": {
          "source": 1
        }
      }
    },
    {
      "sampler": 0,
      "extensions": {
        "EXT_texture_webp": {
          "source": 3
        }
      }
    },
    {
      "sampler": 0,
      "extensions": {
        "EXT_texture_webp": {
          "source": 5
        }
      }
    },
    {
      "sampler": 0,
      "extensions": {
        "EXT_texture_webp": {
          "source": 4
        }
      }
    },
    {
      "sampler": 0,
      "extensions": {
        "EXT_texture_webp": {
          "source": 6
        }
      }
    },
    {
      "sampler": 0,
      "extensions": {
        "EXT_texture_webp": {
          "source": 8
        }
      }
    },
    {
      "sampler": 0,
      "extensions": {
        "EXT_texture_webp": {
          "source": 7
        }
      }
    },
    {
      "sampler": 0,
      "extensions": {
        "EXT_texture_webp": {
          "source": 9
        }
      }
    },
    {
      "sampler": 0,
      "extensions": {
        "EXT_texture_webp": {
          "source": 11
        }
      }
    },
    {
      "sampler": 0,
      "extensions": {
        "EXT_texture_webp": {
          "source": 10
        }
      }
    }
  ],
  "images": [
    {
      "mimeType": "image/webp",
      "uri": "textures/polySurface1SG_baseColor.webp"
    },
    {
      "mimeType": "image/webp",
      "uri": "textures/polySurface1SG_metallicRoughness.webp"
    },
    {
      "mimeType": "image/webp",
      "uri": "textures/polySurface1SG_normal.webp"
    },
    {
      "mimeType": "image/webp",
      "uri": "textures/polySurface356SG_baseColor.webp"
    },
    {
      "mimeType": "image/webp",
      "uri": "textures/polySurface356SG_metallicRoughness.webp"
    },
    {
      "mimeType": "image/webp",
      "uri": "textures/polySurface356SG_normal.webp"
    },
    {
      "mimeType": "image/webp",
      "uri": "textures/polySurface493SG_baseColor.webp"
    },
    {
      "mimeType": "image/webp",
      "uri": "textures/polySurface493SG_metallicRoughness.webp"
    },
    {
      "mimeType": "image/webp",
      "uri": "textures/polySurface493SG_normal.webp"
    },
    {
      "mimeType": "image/webp",
      "uri": "textures/polySurface503SG_baseColor.webp"
    },
    {
      "mimeType": "image/webp",
      "uri": "textures/polySurface503SG_metallicRoughness.webp"
    },
    {
      "mimeType": "image/webp",
      "uri": "textures/polySurface503SG_normal.webp"
    }
  ],
  "buffers": [
    {
      "uri": "scene.bin",
      "byteLength": 3841124
    }
  ],
  "materials": [
    {
      "name": "polySurface1SG",
      "doubleSided": true,
      "pbrMetallicRoughness": {
        "baseColorTexture": {
          "index": 0
        },
        "metallicRoughnessTexture": {
          "index": 2
        }
      },
      "normalTexture": {
        "index": 1
      },
      "occlusionTexture": {
        "index": 2
      }
    },
    {
      "name": "polySurface356SG",
      "doubleSided": true,
      "pbrMetallicRoughness": {
        "baseColorTexture": {
          "index": 3
        },
        "metallicRoughnessTexture": {
          "index": 5
        }
      },
      "normalTexture": {
        "index": 4
      },
      "occlusionTexture": {
        "index": 5
      }
    },
    {
      "name": "polySurface493SG",
      "doubleSided": true,
      "pbrMetallicRoughness": {
        "baseColorTexture": {
          "index": 6
        },
        "metallicRoughnessTexture": {
          "index": 8
        }
      },
      "normalTexture": {
        "index": 7
      },
      "occlusionTexture": {
        "index": 8
      }
    },
    {
      "name": "polySurface503SG",
      "doubleSided": true,
      "pbrMetallicRoughness": {
        "baseColorTexture": {
          "index": 9
        },
        "metallicRoughnessTexture": {
          "index": 11
        }
      },
      "normalTexture": {
        "index": 10
      },
      "occlusionTexture": {
        "index": 11
      }
    }
  ],
  "meshes": [
    {
      "name": "Object_0",
      "primitives": [
        {
          "attributes": {
            "NORMAL": 11,
            "POSITION": 12,
            "TANGENT": 13,
            "TEXCOORD_0": 14
          },
          "mode": 4,
          "material": 0,
          "indices": 0
        }
      ]
    },
    {
      "name": "Object_1",
      "primitives": [
        {
          "attributes": {
            "NORMAL": 15,
            "POSITION": 16,
            "TANGENT": 17,
            "TEXCOORD_0": 18
          },
          "mode": 4,
          "material": 0,
          "indices": 1
        }
      ]
    },
    {
      "name": "Object_2",
      "primitives": [
        {
          "attributes": {
            "NORMAL": 19,
            "POSITION": 20,
            "TANGENT": 21,
            "TEXCOORD_0": 22
          },
          "mode": 4,
          "material": 1,
          "indices": 2
        }
      ]
    },
    {
      "name": "Object_3",
      "primitives": [
        {
          "attributes": {
            "NORMAL": 23,
            "POSITION": 24,
            "TANGENT": 25,
            "TEXCOORD_0": 26
          },
          "mode": 4,
          "material": 1,
          "indices": 3
        }
      ]
    },
    {
      "name": "Object_4",
      "primitives": [
        {
          "attributes": {
            "NORMAL": 27,
            "POSITION": 28,
            "TANGENT": 29,
            "TEXCOORD_0": 30
          },
          "mode": 4,
          "material": 1,
          "indices": 4
        }
      ]
    },
    {
      "name": "Object_5",
      "primitives": [
        {
          "attributes": {
            "NORMAL": 31,
            "POSITION": 32,
            "TANGENT": 33,
            "TEXCOORD_0": 34
          },
          "mode": 4,
          "material": 1,
          "indices": 5
        }
      ]
    },
    {
      "name": "Object_6",
      "primitives": [
        {
          "attributes": {
            "NORMAL": 35,
            "POSITION": 36,
            "TANGENT": 37,
            "TEXCOORD_0": 38
          },
          "mode": 4,
          "material": 2,
          "indices": 6
        }
      ]
    },
    {
      "name": "Object_7",
      "primitives": [
        {
          "attributes": {
            "POSITION": 39,
            "TANGENT": 40,
            "NORMAL": 41,
            "TEXCOORD_0": 42
          },
          "mode": 4,
          "material": 2,
          "indices": 7
        }
      ]
    },
    {
      "name": "Object_8",
      "primitives": [
        {
          "attributes": {
            "NORMAL": 43,
            "POSITION": 44,
            "TANGENT": 45,
            "TEXCOORD_0": 46
          },
          "mode": 4,
          "material": 2,
          "indices": 8
        }
      ]
    },
    {
      "name": "Object_9",
      "primitives": [
        {
          "attributes": {
            "NORMAL": 47,
            "POSITION": 48,
            "TANGENT": 49,
            "TEXCOORD_0": 50
          },
          "mode": 4,
          "material": 2,
          "indices": 9
        }
      ]
    },
    {
      "name": "Object_10",
      "primitives": [
        {
          "attributes": {
            "NORMAL": 51,
            "POSITION": 52,
            "TANGENT": 53,
            "TEXCOORD_0": 54
          },
          "mode": 4,
          "material": 3,
          "indices": 10
        }
      ]
    }
  ],
  "nodes": [
    {
      "name": "Sketchfab_model",
      "rotation": [
        -0.7071067811865475,
        0,
        0,
        0.7071067811865476
      ],
      "children": [
        1
      ]
    },
    {
      "name": "skulls.obj.cleaner.materialmerger.gles",
      "children": [
        2,
        3,
        4,
        5,
        6,
        7,
        8,
        9,
        10,
        11,
        12
      ]
    },
    {
      "name": "Object_2",
      "mesh": 0
    },
    {
      "name": "Object_3",
      "mesh": 1
    },
    {
      "name": "Object_4",
      "mesh": 2
    },
    {
      "name": "Object_5",
      "mesh": 3
    },
    {
      "name": "Object_6",
      "mesh": 4
    },
    {
      "name": "Object_7",
      "mesh": 5
    },
    {
      "name": "Object_8",
      "mesh": 6
    },
    {
      "name": "Object_9",
      "mesh": 7
    },
    {
      "name": "Object_10",
      "mesh": 8
    },
    {
      "name": "Object_11",
      "mesh": 9
    },
    {
      "name": "Object_12",
      "mesh": 10
    }
  ],
  "scenes": [
    {
      "name": "Sketchfab_Scene",
      "nodes": [
        0
      ]
    }
  ],
  "scene": 0,
  "extensionsUsed": [
    "EXT_texture_webp"
  ],
  "extensionsRequired": [
    "EXT_texture_webp"
  ]
}