{
  "accessors": [
    {
      "bufferView": 2,
      "componentType": 5126,
      "count": 4650,
      "max": [
        54.849300384521484,
        191.2215576171875,
        15.780733108520508
      ],
      "min": [
        -54.20318603515625,
        -1.0060577392578125,
        -68.61112213134766
      ],
      "type": "VEC3"
    },
    {
      "bufferView": 2,
      "byteOffset": 55800,
      "componentType": 5126,
      "count": 4650,
      "max": [
        0.9999837875366211,
        0.999998927116394,
        0.9999748468399048
      ],
      "min": [
        -0.9999950528144836,
        -0.9999920725822449,
        -0.9999695420265198
      ],
      "type": "VEC3"
    },
    {
      "bufferView": 3,
      "componentType": 5126,
      "count": 4650,
      "max": [
        0.9975612163543701,
        0.9999969601631165,
        0.9999945163726807,
        1.0
      ],
      "min": [
        -0.9999032020568848,
        -0.9999918341636658,
        -0.999942421913147,
        -1.0
      ],
      "type": "VEC4"
    },
    {
      "bufferView": 1,
      "componentType": 5126,
      "count": 4650,
      "max": [
        0.972851037979126,
        0.9960317611694336
      ],
      "min": [
        0.003875900525599718,
        0.003968268632888794
      ],
      "type": "VEC2"
    },
    {
      "bufferView": 0,
      "componentType": 5125,
      "count": 25518,
      "type": "SCALAR"
    }
  ],
  "asset": {
    "extras": {
      "author": "adamvfc (https://sketchfab.com/adamvfc)",
      "license": "CC-BY-4.0 (http://creativecommons.org/licenses/by/4.0/)",
      "source": "https://sketchfab.com/3d-models/gargoyle-85k-tris-6ee63765c42642928c61510dac7b3df4",
      "title": "Gargoyle  (8.5K Tris)"
    },
    "generator": "Sketchfab-13.68.0",
    "version": "2.0"
  },
  "bufferViews": [
    {
      "buffer": 0,
      "byteLength": 102072,
      "name": "floatBufferViews",
      "target": 34963
    },
    {
      "buffer": 0,
      "byteLength": 37200,
      "byteOffset": 102072,
      "byteStride": 8,
      "name": "floatBufferViews",
      "target": 34962
    },
    {
      "buffer": 0,
      "byteLength": 111600,
      "byteOffset": 139272,
      "byteStride": 12,
      "name": "floatBufferViews",
      "target": 34962
    },
    {
      "buffer": 0,
      "byteLength": 74400,
      "byteOffset": 250872,
      "byteStride": 16,
      "name": "floatBufferViews",
      "target": 34962
    }
  ],
  "buffers": [
    {
      "byteLength": 325272,
      "uri": "scene.bin"
    }
  ],
  "images": [
    {
      "uri": "textures/T_Gargoyle_baseColor.png"
    },
    {
      "uri": "textures/T_Gargoyle_metallicRoughness.png"
    },
    {
      "uri": "textures/T_Gargoyle_normal.png"
    }
  ],
  "materials": [
    {
      "doubleSided": true,
      "name": "T_Gargoyle",
      "normalTexture": {
        "index": 2
      },
      "pbrMetallicRoughness": {
        "baseColorTexture": {
          "index": 0
        },
        "metallicRoughnessTexture": {
          "index": 1
        }
      }
    }
  ],
  "meshes": [
    {
      "name": "SM_gargoyle_T_Gargoyle_0",
      "primitives": [
        {
          "attributes": {
            "NORMAL": 1,
            "POSITION": 0,
            "TANGENT": 2,
            "TEXCOORD_0": 3
          },
          "indices": 4,
          "material": 0,
          "mode": 4
        }
      ]
    }
  ],
  "nodes": [
    {
      "children": [
        1
      ],
      "matrix": [
        1.0,
        0.0,
        0.0,
        0.0,
        0.0,
        2.220446049250313e-16,
        -1.0,
        0.0,
        0.0,
        1.0,
        2.220446049250313e-16,
        0.0,
        0.0,
        0.0,
        0.0,
        1.0
      ],
      "name": "Sketchfab_model"
    },
    {
      "children": [
        2
      ],
      "matrix": [
        0.009999999776482582,
        0.0,
        0.0,
        0.0,
        0.0,
        0.0,
        0.009999999776482582,
        0.0,
        0.0,
        -0.009999999776482582,
        0.0,
        0.0,
        0.0,
        0.0,
        0.0,
        1.0
      ],
      "name": "e13cdf9e2845463cafd9aa4f3d208f06.fbx"
    },
    {
      "children": [
        3
      ],
      "name": "RootNode"
    },
    {
      "children": [
        4
      ],
      "matrix": [
        1.0,
        0.0,
        0.0,
        0.0,
        0.0,
        1.0,
        0.0,
        0.0,
        0.0,
        0.0,
        1.0,
        0.0,
        0.0,
        0.0,
        31.581584930419922,
        1.0
      ],
      "name": "SM_gargoyle"
    },
    {
      "mesh": 0,
      "name": "SM_gargoyle_T_Gargoyle_0"
    }
  ],
  "samplers": [
    {
      "magFilter": 9729,
      "minFilter": 9987,
      "wrapS": 10497,
      "wrapT": 10497
    }
  ],
  "scene": 0,
  "scenes": [
    {
      "name": "Sketchfab_Scene",
      "nodes": [
        0
      ]
    }
  ],
  "textures": [
    {
      "sampler": 0,
      "source": 0
    },
    {
      "sampler": 0,
      "source": 1
    },
    {
      "sampler": 0,
      "source": 2
    }
  ]
}
