{
  "asset": {
    "generator": "glTF-Transform v4.4.0",
    "version": "2.0",
    "extras": {
      "author": "HASSAN (https://sketchfab.com/7ASSAN)",
      "license": "CC-BY-4.0 (http://creativecommons.org/licenses/by/4.0/)",
      "source": "https://sketchfab.com/3d-models/medieval-door-581dc6a53d2d4cafb5f781127f137c6f",
      "title": "medieval_door"
    }
  },
  "accessors": [
    {
      "type": "SCALAR",
      "componentType": 5126,
      "count": 78,
      "max": [
        1.625
      ],
      "min": [
        0
      ],
      "bufferView": 0,
      "byteOffset": 0
    },
    {
      "type": "VEC4",
      "componentType": 5126,
      "count": 78,
      "bufferView": 0,
      "byteOffset": 312
    },
    {
      "type": "SCALAR",
      "componentType": 5123,
      "count": 6144,
      "bufferView": 1,
      "byteOffset": 0
    },
    {
      "type": "SCALAR",
      "componentType": 5123,
      "count": 24984,
      "bufferView": 1,
      "byteOffset": 12288
    },
    {
      "type": "VEC3",
      "componentType": 5126,
      "count": 1190,
      "bufferView": 2,
      "byteOffset": 0
    },
    {
      "type": "VEC3",
      "componentType": 5126,
      "count": 1190,
      "max": [
        275.5293884277344,
        945.8999633789062,
        37.84992599487305
      ],
      "min": [
        -261.66650390625,
        53.02971649169922,
        -45.64762878417969
      ],
      "bufferView": 2,
      "byteOffset": 12
    },
    {
      "type": "VEC4",
      "componentType": 5126,
      "count": 1190,
      "bufferView": 2,
      "byteOffset": 24
    },
    {
      "type": "VEC2",
      "componentType": 5126,
      "count": 1190,
      "bufferView": 2,
      "byteOffset": 40
    },
    {
      "type": "VEC3",
      "componentType": 5126,
      "count": 5278,
      "bufferView": 3,
      "byteOffset": 0
    },
    {
      "type": "VEC3",
      "componentType": 5126,
      "count": 5278,
      "max": [
        374.9852294921875,
        4.805469512939453,
        34.584320068359375
      ],
      "min": [
        -3.364264965057373,
        -817.7536010742188,
        -30.669641494750977
      ],
      "bufferView": 3,
      "byteOffset": 12
    },
    {
      "type": "VEC4",
      "componentType": 5126,
      "count": 5278,
      "bufferView": 3,
      "byteOffset": 24
    },
    {
      "type": "VEC2",
      "componentType": 5126,
      "count": 5278,
      "bufferView": 3,
      "byteOffset": 40
    }
  ],
  "bufferViews": [
    {
      "buffer": 0,
      "byteOffset": 0,
      "byteLength": 1560
    },
    {
      "buffer": 0,
      "byteOffset": 1560,
      "byteLength": 62256,
      "target": 34963
    },
    {
      "buffer": 0,
      "byteOffset": 63816,
      "byteLength": 57120,
      "byteStride": 48,
      "target": 34962
    },
    {
      "buffer": 0,
      "byteOffset": 120936,
      "byteLength": 253344,
      "byteStride": 48,
      "target": 34962
    }
  ],
  "samplers": [
    {
      "magFilter": 9729,
      "minFilter": 9987,
      "wrapS": 10497,
      "wrapT": 10497
    }
  ],
  "textures": [
    {
      "sampler": 0,
      "extensions": {
        "EXT_texture_webp": {
          "source": 0
        }
      }
    },
    {
      "sampler": 0,
      "extensions": {
        "EXT_texture_webp": {
          "source": 2
        }
      }
    },
    {
      "sampler": 0,
      "extensions": {
        "EXT_texture_webp": {
          "source": 1
        }
      }
    }
  ],
  "images": [
    {
      "mimeType": "image/webp",
      "uri": "textures/RootNode_baseColor.webp"
    },
    {
      "mimeType": "image/webp",
      "uri": "textures/RootNode_metallicRoughness.webp"
    },
    {
      "mimeType": "image/webp",
      "uri": "textures/RootNode_normal.webp"
    }
  ],
  "buffers": [
    {
      "uri": "scene.bin",
      "byteLength": 374280
    }
  ],
  "materials": [
    {
      "name": "RootNode",
      "doubleSided": true,
      "pbrMetallicRoughness": {
        "baseColorTexture": {
          "index": 0
        },
        "metallicRoughnessTexture": {
          "index": 2
        }
      },
      "normalTexture": {
        "index": 1
      },
      "occlusionTexture": {
        "index": 2
      }
    }
  ],
  "meshes": [
    {
      "name": "Cube.000__0",
      "primitives": [
        {
          "attributes": {
            "NORMAL": 4,
            "POSITION": 5,
            "TANGENT": 6,
            "TEXCOORD_0": 7
          },
          "mode": 4,
          "material": 0,
          "indices": 2
        }
      ]
    },
    {
      "name": "Cube.004__0",
      "primitives": [
        {
          "attributes": {
            "NORMAL": 8,
            "POSITION": 9,
            "TANGENT": 10,
            "TEXCOORD_0": 11
          },
          "mode": 4,
          "material": 0,
          "indices": 3
        }
      ]
    }
  ],
  "nodes": [
    {
      "name": "Sketchfab_model",
      "rotation": [
        -0.7071067811865475,
        0,
        0,
        0.7071067811865476
      ],
      "children": [
        1
      ]
    },
    {
      "name": "a3991224f78d4dbebb59bb5f8b21aa8b.fbx",
      "rotation": [
        0.7071067811865475,
        0,
        0,
        0.7071067811865476
      ],
      "children": [
        2
      ]
    },
    {
      "name": "Object_2",
      "children": [
        3
      ]
    },
    {
      "name": "RootNode",
      "children": [
        4,
        6
      ]
    },
    {
      "name": "Cube.000",
      "translation": [
        0,
        -47.7620849609375,
        -1.5074656009674072
      ],
      "children": [
        5
      ]
    },
    {
      "name": "Cube.000__0",
      "mesh": 0
    },
    {
      "name": "Cube.004",
      "translation": [
        -179.0237274169922,
        821.632080078125,
        -43.82219314575195
      ],
      "children": [
        7
      ]
    },
    {
      "name": "Cube.004__0",
      "mesh": 1
    }
  ],
  "animations": [
    {
      "name": "Cube.004|Cube.004Action",
      "samplers": [
        {
          "input": 0,
          "output": 1,
          "interpolation": "LINEAR"
        }
      ],
      "channels": [
        {
          "sampler": 0,
          "target": {
            "node": 6,
            "path": "rotation"
          }
        }
      ]
    }
  ],
  "scenes": [
    {
      "name": "Sketchfab_Scene",
      "nodes": [
        0
      ]
    }
  ],
  "scene": 0,
  "extensionsUsed": [
    "EXT_texture_webp"
  ],
  "extensionsRequired": [
    "EXT_texture_webp"
  ]
}