{
  "asset": {
    "generator": "glTF-Transform v4.4.0",
    "version": "2.0",
    "extras": {
      "author": "Nichgon (https://sketchfab.com/nichgon)",
      "license": "SKETCHFAB Standard (https://sketchfab.com/licenses)",
      "source": "https://sketchfab.com/3d-models/spike-trap-01-4022678cac214fd2963894aa152fc6f2",
      "title": "Spike Trap 01"
    }
  },
  "accessors": [
    {
      "type": "SCALAR",
      "componentType": 5123,
      "count": 1230,
      "bufferView": 0,
      "byteOffset": 0
    },
    {
      "type": "VEC3",
      "componentType": 5126,
      "count": 470,
      "bufferView": 1,
      "byteOffset": 0
    },
    {
      "type": "VEC3",
      "componentType": 5126,
      "count": 470,
      "max": [
        0.30000001192092896,
        0.30000001192092896,
        0.18506157398223877
      ],
      "min": [
        -0.30000001192092896,
        -0.30000001192092896,
        0
      ],
      "bufferView": 1,
      "byteOffset": 12
    },
    {
      "type": "VEC4",
      "componentType": 5126,
      "count": 470,
      "bufferView": 1,
      "byteOffset": 24
    },
    {
      "type": "VEC2",
      "componentType": 5126,
      "count": 470,
      "bufferView": 1,
      "byteOffset": 40
    }
  ],
  "bufferViews": [
    {
      "buffer": 0,
      "byteOffset": 0,
      "byteLength": 2460,
      "target": 34963
    },
    {
      "buffer": 0,
      "byteOffset": 2460,
      "byteLength": 22560,
      "byteStride": 48,
      "target": 34962
    }
  ],
  "samplers": [
    {
      "magFilter": 9729,
      "minFilter": 9987,
      "wrapS": 10497,
      "wrapT": 10497
    }
  ],
  "textures": [
    {
      "sampler": 0,
      "extensions": {
        "EXT_texture_webp": {
          "source": 0
        }
      }
    },
    {
      "sampler": 0,
      "extensions": {
        "EXT_texture_webp": {
          "source": 2
        }
      }
    },
    {
      "sampler": 0,
      "extensions": {
        "EXT_texture_webp": {
          "source": 1
        }
      }
    }
  ],
  "images": [
    {
      "mimeType": "image/webp",
      "uri": "textures/OPM0041_baseColor.webp"
    },
    {
      "mimeType": "image/webp",
      "uri": "textures/OPM0041_metallicRoughness.webp"
    },
    {
      "mimeType": "image/webp",
      "uri": "textures/OPM0041_normal.webp"
    }
  ],
  "buffers": [
    {
      "uri": "scene.bin",
      "byteLength": 25020
    }
  ],
  "materials": [
    {
      "name": "OPM0041",
      "doubleSided": true,
      "pbrMetallicRoughness": {
        "roughnessFactor": 0.85,
        "baseColorTexture": {
          "index": 0
        },
        "metallicRoughnessTexture": {
          "index": 2
        }
      },
      "normalTexture": {
        "index": 1
      },
      "occlusionTexture": {
        "index": 2
      },
      "extensions": {
        "KHR_materials_specular": {
          "specularFactor": 0.3
        }
      }
    }
  ],
  "meshes": [
    {
      "name": "OPM0041_OPM0041_0",
      "primitives": [
        {
          "attributes": {
            "NORMAL": 1,
            "POSITION": 2,
            "TANGENT": 3,
            "TEXCOORD_0": 4
          },
          "mode": 4,
          "material": 0,
          "indices": 0
        }
      ]
    }
  ],
  "nodes": [
    {
      "name": "Sketchfab_model",
      "rotation": [
        -0.7071067811865475,
        0,
        0,
        0.7071067811865476
      ],
      "children": [
        1
      ]
    },
    {
      "name": "4424719673b84aae8256f19889769264.fbx",
      "rotation": [
        0.7071067811865475,
        0,
        0,
        0.7071067811865476
      ],
      "scale": [
        0.009999999776482582,
        0.009999999776482582,
        0.009999999776482582
      ],
      "children": [
        2
      ]
    },
    {
      "name": "RootNode",
      "children": [
        3
      ]
    },
    {
      "name": "OPM0041",
      "rotation": [
        -0.7071068387877038,
        0,
        0,
        0.7071067235853866
      ],
      "scale": [
        100,
        100.00000000000001,
        100.00000000000001
      ],
      "children": [
        4
      ]
    },
    {
      "name": "OPM0041_OPM0041_0",
      "mesh": 0
    }
  ],
  "scenes": [
    {
      "name": "Sketchfab_Scene",
      "nodes": [
        0
      ]
    }
  ],
  "scene": 0,
  "extensionsUsed": [
    "EXT_texture_webp",
    "KHR_materials_specular"
  ],
  "extensionsRequired": [
    "EXT_texture_webp"
  ]
}