{
  "asset": {
    "generator": "glTF-Transform v4.4.0",
    "version": "2.0",
    "extras": {
      "author": "LowSeb (https://sketchfab.com/lowseb)",
      "license": "CC-BY-4.0 (http://creativecommons.org/licenses/by/4.0/)",
      "source": "https://sketchfab.com/3d-models/medieval-sword-da574cba504e4b83a3293f3d3bd067fb",
      "title": "medieval sword"
    }
  },
  "accessors": [
    {
      "type": "SCALAR",
      "componentType": 5123,
      "count": 2586,
      "bufferView": 0,
      "byteOffset": 0
    },
    {
      "type": "VEC3",
      "componentType": 5126,
      "count": 826,
      "bufferView": 1,
      "byteOffset": 0
    },
    {
      "type": "VEC3",
      "componentType": 5126,
      "count": 826,
      "max": [
        1,
        0.035247500985860825,
        0.1915930062532425
      ],
      "min": [
        -1,
        -0.035247500985860825,
        -0.1915930062532425
      ],
      "bufferView": 1,
      "byteOffset": 12
    },
    {
      "type": "VEC4",
      "componentType": 5126,
      "count": 826,
      "bufferView": 1,
      "byteOffset": 24
    },
    {
      "type": "VEC2",
      "componentType": 5126,
      "count": 826,
      "bufferView": 1,
      "byteOffset": 40
    }
  ],
  "bufferViews": [
    {
      "buffer": 0,
      "byteOffset": 0,
      "byteLength": 5172,
      "target": 34963
    },
    {
      "buffer": 0,
      "byteOffset": 5172,
      "byteLength": 39648,
      "byteStride": 48,
      "target": 34962
    }
  ],
  "samplers": [
    {
      "magFilter": 9729,
      "minFilter": 9987,
      "wrapS": 10497,
      "wrapT": 10497
    }
  ],
  "textures": [
    {
      "sampler": 0,
      "extensions": {
        "EXT_texture_webp": {
          "source": 0
        }
      }
    },
    {
      "sampler": 0,
      "extensions": {
        "EXT_texture_webp": {
          "source": 2
        }
      }
    },
    {
      "sampler": 0,
      "extensions": {
        "EXT_texture_webp": {
          "source": 1
        }
      }
    }
  ],
  "images": [
    {
      "mimeType": "image/webp",
      "uri": "textures/wire_135059008_baseColor.webp"
    },
    {
      "mimeType": "image/webp",
      "uri": "textures/wire_135059008_metallicRoughness.webp"
    },
    {
      "mimeType": "image/webp",
      "uri": "textures/wire_135059008_normal.webp"
    }
  ],
  "buffers": [
    {
      "uri": "scene.bin",
      "byteLength": 44820
    }
  ],
  "materials": [
    {
      "name": "wire_135059008",
      "doubleSided": true,
      "pbrMetallicRoughness": {
        "baseColorTexture": {
          "index": 0
        },
        "metallicRoughnessTexture": {
          "index": 2
        }
      },
      "normalTexture": {
        "index": 1
      },
      "occlusionTexture": {
        "index": 2
      }
    }
  ],
  "meshes": [
    {
      "name": "defaultMaterial",
      "primitives": [
        {
          "attributes": {
            "NORMAL": 1,
            "POSITION": 2,
            "TANGENT": 3,
            "TEXCOORD_0": 4
          },
          "mode": 4,
          "material": 0,
          "indices": 0
        }
      ]
    }
  ],
  "nodes": [
    {
      "name": "Sketchfab_model",
      "rotation": [
        -0.7071067811865475,
        0,
        0,
        0.7071067811865476
      ],
      "children": [
        1
      ]
    },
    {
      "name": "Collada visual scene group",
      "rotation": [
        0.7071067966408576,
        0,
        0,
        0.7071067657322372
      ],
      "children": [
        2
      ]
    },
    {
      "name": "Low",
      "children": [
        3
      ]
    },
    {
      "name": "defaultMaterial",
      "mesh": 0
    }
  ],
  "scenes": [
    {
      "name": "Sketchfab_Scene",
      "nodes": [
        0
      ]
    }
  ],
  "scene": 0,
  "extensionsUsed": [
    "EXT_texture_webp"
  ],
  "extensionsRequired": [
    "EXT_texture_webp"
  ]
}