{
  "accessors": [
    {
      "bufferView": 2,
      "componentType": 5126,
      "count": 649,
      "max": [
        118.70873260498047,
        99.49879455566406,
        68.29959869384766
      ],
      "min": [
        -120.5328598022461,
        -3.780978202819824,
        -74.01512145996094
      ],
      "type": "VEC3"
    },
    {
      "bufferView": 2,
      "byteOffset": 7788,
      "componentType": 5126,
      "count": 649,
      "max": [
        0.9999998807907104,
        0.9999920129776001,
        0.9999872446060181
      ],
      "min": [
        -0.9999790191650391,
        -1.0,
        -1.0
      ],
      "type": "VEC3"
    },
    {
      "bufferView": 3,
      "componentType": 5126,
      "count": 649,
      "max": [
        0.9999866485595703,
        0.9999039173126221,
        0.9999943971633911,
        1.0
      ],
      "min": [
        -1.0,
        -0.9999822974205017,
        -0.9999983906745911,
        -1.0
      ],
      "type": "VEC4"
    },
    {
      "bufferView": 1,
      "componentType": 5126,
      "count": 649,
      "max": [
        1.0,
        0.9855769872665405
      ],
      "min": [
        5.551115123125783e-17,
        3.109966169138889e-17
      ],
      "type": "VEC2"
    },
    {
      "bufferView": 0,
      "componentType": 5125,
      "count": 1812,
      "type": "SCALAR"
    }
  ],
  "asset": {
    "extras": {
      "author": "Desolation Forge (https://sketchfab.com/Desolation_Forge)",
      "license": "CC-BY-ND-4.0 (http://creativecommons.org/licenses/by-nd/4.0/)",
      "source": "https://sketchfab.com/3d-models/old-bed-low-poly-game-asset-9e22468d22414f1e8e58ecdc7dbeae96",
      "title": "Old Bed - Low-Poly Game Asset"
    },
    "generator": "Sketchfab-16.21.0",
    "version": "2.0"
  },
  "bufferViews": [
    {
      "buffer": 0,
      "byteLength": 7248,
      "name": "floatBufferViews",
      "target": 34963
    },
    {
      "buffer": 0,
      "byteLength": 5192,
      "byteOffset": 7248,
      "byteStride": 8,
      "name": "floatBufferViews",
      "target": 34962
    },
    {
      "buffer": 0,
      "byteLength": 15576,
      "byteOffset": 12440,
      "byteStride": 12,
      "name": "floatBufferViews",
      "target": 34962
    },
    {
      "buffer": 0,
      "byteLength": 10384,
      "byteOffset": 28016,
      "byteStride": 16,
      "name": "floatBufferViews",
      "target": 34962
    }
  ],
  "buffers": [
    {
      "byteLength": 38400,
      "uri": "scene.bin"
    }
  ],
  "images": [
    {
      "uri": "textures/OldBed_baseColor.png"
    },
    {
      "uri": "textures/OldBed_metallicRoughness.png"
    },
    {
      "uri": "textures/OldBed_normal.png"
    }
  ],
  "materials": [
    {
      "doubleSided": true,
      "name": "OldBed",
      "normalTexture": {
        "index": 2
      },
      "pbrMetallicRoughness": {
        "baseColorTexture": {
          "index": 0
        },
        "metallicRoughnessTexture": {
          "index": 1
        }
      }
    }
  ],
  "meshes": [
    {
      "name": "OldBed_OldBed_0",
      "primitives": [
        {
          "attributes": {
            "NORMAL": 1,
            "POSITION": 0,
            "TANGENT": 2,
            "TEXCOORD_0": 3
          },
          "indices": 4,
          "material": 0,
          "mode": 4
        }
      ]
    }
  ],
  "nodes": [
    {
      "children": [
        1
      ],
      "matrix": [
        1.0,
        0.0,
        0.0,
        0.0,
        0.0,
        2.220446049250313e-16,
        -1.0,
        0.0,
        0.0,
        1.0,
        2.220446049250313e-16,
        0.0,
        0.0,
        0.0,
        0.0,
        1.0
      ],
      "name": "Sketchfab_model"
    },
    {
      "children": [
        2
      ],
      "matrix": [
        0.0010000000474974513,
        0.0,
        0.0,
        0.0,
        0.0,
        0.0,
        0.0010000000474974513,
        0.0,
        0.0,
        -0.0010000000474974513,
        0.0,
        0.0,
        0.0,
        0.0,
        0.0,
        1.0
      ],
      "name": "dd01395c2921448785069a295215a66c.fbx"
    },
    {
      "children": [
        3
      ],
      "name": "RootNode"
    },
    {
      "children": [
        4
      ],
      "matrix": [
        10.0,
        0.0,
        0.0,
        0.0,
        0.0,
        9.99999999999999,
        4.371139006309477e-07,
        0.0,
        0.0,
        -4.371139006309477e-07,
        9.99999999999999,
        0.0,
        0.0,
        0.0,
        0.0,
        1.0
      ],
      "name": "OldBed"
    },
    {
      "mesh": 0,
      "name": "OldBed_OldBed_0"
    }
  ],
  "samplers": [
    {
      "magFilter": 9729,
      "minFilter": 9987,
      "wrapS": 10497,
      "wrapT": 10497
    }
  ],
  "scene": 0,
  "scenes": [
    {
      "name": "Sketchfab_Scene",
      "nodes": [
        0
      ]
    }
  ],
  "textures": [
    {
      "sampler": 0,
      "source": 0
    },
    {
      "sampler": 0,
      "source": 1
    },
    {
      "sampler": 0,
      "source": 2
    }
  ]
}
