{
  "accessors": [
    {
      "bufferView": 2,
      "componentType": 5126,
      "count": 65532,
      "max": [
        4.038620471954346,
        47.346534729003906,
        49.99913787841797
      ],
      "min": [
        -50.00004196166992,
        -7.930793799459934e-10,
        -50.000858306884766
      ],
      "type": "VEC3"
    },
    {
      "bufferView": 2,
      "byteOffset": 786384,
      "componentType": 5126,
      "count": 65532,
      "max": [
        0.08078226447105408,
        0.9469306468963623,
        1.0
      ],
      "min": [
        -1.0,
        -8.642764441901818e-06,
        -1.0
      ],
      "type": "VEC3"
    },
    {
      "bufferView": 3,
      "componentType": 5126,
      "count": 65532,
      "max": [
        3.5291795938974246e-06,
        0.38778001070022583,
        0.012252732180058956,
        1.0
      ],
      "min": [
        -1.0,
        -1.0,
        -0.012299427762627602,
        1.0
      ],
      "type": "VEC4"
    },
    {
      "bufferView": 1,
      "componentType": 5126,
      "count": 65532,
      "max": [
        1.9999992847442627,
        1.0
      ],
      "min": [
        1.3750019073486328,
        0.0
      ],
      "type": "VEC2"
    },
    {
      "bufferView": 0,
      "componentType": 5125,
      "count": 388755,
      "type": "SCALAR"
    },
    {
      "bufferView": 2,
      "byteOffset": 1572768,
      "componentType": 5126,
      "count": 65532,
      "max": [
        43.09513473510742,
        49.79771041870117,
        49.99913787841797
      ],
      "min": [
        -50.00004196166992,
        -49.99995040893555,
        -50.000858306884766
      ],
      "type": "VEC3"
    },
    {
      "bufferView": 2,
      "byteOffset": 2359152,
      "componentType": 5126,
      "count": 65532,
      "max": [
        0.8619048595428467,
        0.9959531426429749,
        1.0
      ],
      "min": [
        -1.0,
        -1.0,
        -1.0
      ],
      "type": "VEC3"
    },
    {
      "bufferView": 3,
      "byteOffset": 1048512,
      "componentType": 5126,
      "count": 65532,
      "max": [
        1.0,
        0.884512722492218,
        0.012249186635017395,
        1.0
      ],
      "min": [
        -1.0,
        -1.0,
        -0.01229968760162592,
        1.0
      ],
      "type": "VEC4"
    },
    {
      "bufferView": 1,
      "byteOffset": 524256,
      "componentType": 5126,
      "count": 65532,
      "max": [
        1.9583326578140259,
        1.0
      ],
      "min": [
        -7.152557373046875e-07,
        0.0
      ],
      "type": "VEC2"
    },
    {
      "bufferView": 0,
      "byteOffset": 1555020,
      "componentType": 5125,
      "count": 370260,
      "type": "SCALAR"
    },
    {
      "bufferView": 2,
      "byteOffset": 3145536,
      "componentType": 5126,
      "count": 65532,
      "max": [
        49.99995803833008,
        49.62405776977539,
        49.99913787841797
      ],
      "min": [
        -14.122416496276855,
        -30.92359733581543,
        -49.99417495727539
      ],
      "type": "VEC3"
    },
    {
      "bufferView": 2,
      "byteOffset": 3931920,
      "componentType": 5126,
      "count": 65532,
      "max": [
        1.0,
        0.9924801588058472,
        1.0
      ],
      "min": [
        -0.2824459373950958,
        -0.6184740662574768,
        -0.9998669028282166
      ],
      "type": "VEC3"
    },
    {
      "bufferView": 3,
      "byteOffset": 2097024,
      "componentType": 5126,
      "count": 65532,
      "max": [
        0.958530068397522,
        1.0,
        0.008198966272175312,
        1.0
      ],
      "min": [
        -0.9924813508987427,
        -0.2824481725692749,
        -0.00819270871579647,
        1.0
      ],
      "type": "VEC4"
    },
    {
      "bufferView": 1,
      "byteOffset": 1048512,
      "componentType": 5126,
      "count": 65532,
      "max": [
        1.5911457538604736,
        1.0
      ],
      "min": [
        0.5937496423721313,
        0.005208492279052734
      ],
      "type": "VEC2"
    },
    {
      "bufferView": 0,
      "byteOffset": 3036060,
      "componentType": 5125,
      "count": 385572,
      "type": "SCALAR"
    },
    {
      "bufferView": 2,
      "byteOffset": 4718304,
      "componentType": 5126,
      "count": 65532,
      "max": [
        40.40251922607422,
        49.95821762084961,
        49.99913787841797
      ],
      "min": [
        -49.26393508911133,
        -49.9982795715332,
        -49.99417495727539
      ],
      "type": "VEC3"
    },
    {
      "bufferView": 2,
      "byteOffset": 5504688,
      "componentType": 5126,
      "count": 65532,
      "max": [
        0.8080577254295349,
        0.9991635084152222,
        1.0
      ],
      "min": [
        -0.9852781295776367,
        -0.9999666213989258,
        -0.99986732006073
      ],
      "type": "VEC3"
    },
    {
      "bufferView": 3,
      "byteOffset": 3145536,
      "componentType": 5126,
      "count": 65532,
      "max": [
        0.9999847412109375,
        0.8932934403419495,
        0.008197767660021782,
        1.0
      ],
      "min": [
        -1.0,
        -0.9853037595748901,
        -0.00819077156484127,
        1.0
      ],
      "type": "VEC4"
    },
    {
      "bufferView": 1,
      "byteOffset": 1572768,
      "componentType": 5126,
      "count": 65532,
      "max": [
        1.53125,
        1.0
      ],
      "min": [
        0.049478448927402496,
        0.005208492279052734
      ],
      "type": "VEC2"
    },
    {
      "bufferView": 0,
      "byteOffset": 4578348,
      "componentType": 5125,
      "count": 368388,
      "type": "SCALAR"
    },
    {
      "bufferView": 2,
      "byteOffset": 6291072,
      "componentType": 5126,
      "count": 42468,
      "max": [
        40.87911605834961,
        50.00004577636719,
        49.99913787841797
      ],
      "min": [
        -44.66129684448242,
        -49.86448287963867,
        -50.000858306884766
      ],
      "type": "VEC3"
    },
    {
      "bufferView": 2,
      "byteOffset": 6800688,
      "componentType": 5126,
      "count": 42468,
      "max": [
        0.8175811767578125,
        1.0,
        1.0
      ],
      "min": [
        -0.8932241797447205,
        -0.9972907900810242,
        -1.0
      ],
      "type": "VEC3"
    },
    {
      "bufferView": 3,
      "byteOffset": 4194048,
      "componentType": 5126,
      "count": 42468,
      "max": [
        0.9996993541717529,
        0.9996991157531738,
        0.008191866800189018,
        1.0
      ],
      "min": [
        -1.0,
        -0.9997028708457947,
        -0.008188590407371521,
        1.0
      ],
      "type": "VEC4"
    },
    {
      "bufferView": 1,
      "byteOffset": 2097024,
      "componentType": 5126,
      "count": 42468,
      "max": [
        1.9635409116744995,
        1.0
      ],
      "min": [
        -7.152557373046875e-07,
        0.0
      ],
      "type": "VEC2"
    },
    {
      "bufferView": 0,
      "byteOffset": 6051900,
      "componentType": 5125,
      "count": 228849,
      "type": "SCALAR"
    }
  ],
  "asset": {
    "extras": {
      "author": "roanlarsen3D (https://sketchfab.com/roanlarsen3D)",
      "license": "CC-BY-4.0 (http://creativecommons.org/licenses/by/4.0/)",
      "source": "https://sketchfab.com/3d-models/realistic-stone-wall-substance-3d-designer-c865ae8b68604d88aaa51fd1a62ec0af",
      "title": "Realistic Stone Wall - Substance 3D Designer"
    },
    "generator": "Sketchfab-16.65.0",
    "version": "2.0"
  },
  "bufferViews": [
    {
      "buffer": 0,
      "byteLength": 6967296,
      "name": "floatBufferViews",
      "target": 34963
    },
    {
      "buffer": 0,
      "byteLength": 2436768,
      "byteOffset": 6967296,
      "byteStride": 8,
      "name": "floatBufferViews",
      "target": 34962
    },
    {
      "buffer": 0,
      "byteLength": 7310304,
      "byteOffset": 9404064,
      "byteStride": 12,
      "name": "floatBufferViews",
      "target": 34962
    },
    {
      "buffer": 0,
      "byteLength": 4873536,
      "byteOffset": 16714368,
      "byteStride": 16,
      "name": "floatBufferViews",
      "target": 34962
    }
  ],
  "buffers": [
    {
      "byteLength": 21587904,
      "uri": "scene.bin"
    }
  ],
  "extensionsUsed": [
    "KHR_materials_specular"
  ],
  "images": [
    {
      "uri": "textures/Scene_-_Root_baseColor.png"
    },
    {
      "uri": "textures/Scene_-_Root_metallicRoughness.png"
    },
    {
      "uri": "textures/Scene_-_Root_normal.png"
    }
  ],
  "materials": [
    {
      "doubleSided": true,
      "extensions": {
        "KHR_materials_specular": {
          "specularColorFactor": [
            1.0,
            1.0,
            1.0
          ],
          "specularFactor": 0.5104777462178932
        }
      },
      "name": "Scene_-_Root",
      "normalTexture": {
        "index": 2
      },
      "occlusionTexture": {
        "index": 1
      },
      "pbrMetallicRoughness": {
        "baseColorTexture": {
          "index": 0
        },
        "metallicFactor": 0.0,
        "metallicRoughnessTexture": {
          "index": 1
        }
      }
    }
  ],
  "meshes": [
    {
      "name": "Sphere.001__0",
      "primitives": [
        {
          "attributes": {
            "NORMAL": 1,
            "POSITION": 0,
            "TANGENT": 2,
            "TEXCOORD_0": 3
          },
          "indices": 4,
          "material": 0,
          "mode": 4
        }
      ]
    },
    {
      "name": "Sphere.001__0",
      "primitives": [
        {
          "attributes": {
            "NORMAL": 6,
            "POSITION": 5,
            "TANGENT": 7,
            "TEXCOORD_0": 8
          },
          "indices": 9,
          "material": 0,
          "mode": 4
        }
      ]
    },
    {
      "name": "Sphere.001__0",
      "primitives": [
        {
          "attributes": {
            "NORMAL": 11,
            "POSITION": 10,
            "TANGENT": 12,
            "TEXCOORD_0": 13
          },
          "indices": 14,
          "material": 0,
          "mode": 4
        }
      ]
    },
    {
      "name": "Sphere.001__0",
      "primitives": [
        {
          "attributes": {
            "NORMAL": 16,
            "POSITION": 15,
            "TANGENT": 17,
            "TEXCOORD_0": 18
          },
          "indices": 19,
          "material": 0,
          "mode": 4
        }
      ]
    },
    {
      "name": "Sphere.001__0",
      "primitives": [
        {
          "attributes": {
            "NORMAL": 21,
            "POSITION": 20,
            "TANGENT": 22,
            "TEXCOORD_0": 23
          },
          "indices": 24,
          "material": 0,
          "mode": 4
        }
      ]
    }
  ],
  "nodes": [
    {
      "children": [
        1
      ],
      "matrix": [
        1.0,
        0.0,
        0.0,
        0.0,
        0.0,
        2.220446049250313e-16,
        -1.0,
        0.0,
        0.0,
        1.0,
        2.220446049250313e-16,
        0.0,
        0.0,
        0.0,
        0.0,
        1.0
      ],
      "name": "Sketchfab_model"
    },
    {
      "children": [
        2
      ],
      "matrix": [
        0.009999999776482582,
        0.0,
        0.0,
        0.0,
        0.0,
        0.0,
        0.009999999776482582,
        0.0,
        0.0,
        -0.009999999776482582,
        0.0,
        0.0,
        0.0,
        0.0,
        0.0,
        1.0
      ],
      "name": "387a3e58f1384bdfb1edbff43660f0c1.fbx"
    },
    {
      "children": [
        3
      ],
      "name": "RootNode"
    },
    {
      "children": [
        4,
        5,
        6,
        7,
        8
      ],
      "matrix": [
        1.0,
        0.0,
        0.0,
        0.0,
        -0.0,
        -2.8212996916465727e-07,
        -0.9999999999999603,
        0.0,
        0.0,
        0.9999999999999603,
        -2.8212996916465727e-07,
        0.0,
        -4.2729639062599745e-06,
        50.0,
        -2.185569428547751e-06,
        1.0
      ],
      "name": "Sphere.001"
    },
    {
      "mesh": 0,
      "name": "Sphere.001__0"
    },
    {
      "mesh": 1,
      "name": "Sphere.001__0"
    },
    {
      "mesh": 2,
      "name": "Sphere.001__0"
    },
    {
      "mesh": 3,
      "name": "Sphere.001__0"
    },
    {
      "mesh": 4,
      "name": "Sphere.001__0"
    }
  ],
  "samplers": [
    {
      "magFilter": 9729,
      "minFilter": 9987,
      "wrapS": 10497,
      "wrapT": 10497
    }
  ],
  "scene": 0,
  "scenes": [
    {
      "name": "Sketchfab_Scene",
      "nodes": [
        0
      ]
    }
  ],
  "textures": [
    {
      "sampler": 0,
      "source": 0
    },
    {
      "sampler": 0,
      "source": 1
    },
    {
      "sampler": 0,
      "source": 2
    }
  ]
}
